<svg width="30" height="30" viewBox="0 0 30 30" fill="none" xmlns="http://www.w3.org/2000/svg">
<circle cx="15" cy="15" r="15" fill="#73EA3B"/>
<path fill-rule="evenodd" clip-rule="evenodd" d="M12.4075 7.045C13.2072 7.00818 13.4622 7 15.4995 7C17.5368 7 17.7918 7.00886 18.5909 7.045C19.39 7.08114 19.9354 7.20864 20.4127 7.39341C20.9125 7.58227 21.3659 7.8775 21.7409 8.25932C22.1227 8.63364 22.4172 9.08636 22.6054 9.58682C22.7909 10.0641 22.9177 10.6095 22.9545 11.4073C22.9913 12.2084 22.9995 12.4634 22.9995 14.5C22.9995 16.5373 22.9906 16.7923 22.9545 17.592C22.9184 18.3898 22.7909 18.9352 22.6054 19.4125C22.4172 19.913 22.1222 20.3665 21.7409 20.7414C21.3659 21.1232 20.9125 21.4177 20.4127 21.6059C19.9354 21.7914 19.39 21.9182 18.5922 21.955C17.7918 21.9918 17.5368 22 15.4995 22C13.4622 22 13.2072 21.9911 12.4075 21.955C11.6097 21.9189 11.0643 21.7914 10.587 21.6059C10.0865 21.4177 9.63303 21.1227 9.25815 20.7414C8.87659 20.3668 8.58132 19.9136 8.39292 19.4132C8.20815 18.9359 8.08133 18.3905 8.04451 17.5927C8.00769 16.7916 7.99951 16.5366 7.99951 14.5C7.99951 12.4627 8.00838 12.2077 8.04451 11.4086C8.08065 10.6095 8.20815 10.0641 8.39292 9.58682C8.5816 9.08642 8.87709 8.63317 9.25883 8.25864C9.63318 7.87716 10.0862 7.58189 10.5863 7.39341C11.0636 7.20864 11.6091 7.08182 12.4068 7.045H12.4075ZM18.5302 8.395C17.7393 8.35886 17.502 8.35136 15.4995 8.35136C13.497 8.35136 13.2597 8.35886 12.4688 8.395C11.7372 8.42841 11.3404 8.55045 11.0759 8.65341C10.7261 8.78977 10.4759 8.95136 10.2134 9.21386C9.96454 9.45594 9.77304 9.75065 9.65292 10.0764C9.54997 10.3409 9.42792 10.7377 9.39451 11.4693C9.35838 12.2602 9.35088 12.4975 9.35088 14.5C9.35088 16.5025 9.35838 16.7398 9.39451 17.5307C9.42792 18.2623 9.54997 18.6591 9.65292 18.9236C9.77292 19.2489 9.96451 19.5441 10.2134 19.7861C10.4554 20.035 10.7506 20.2266 11.0759 20.3466C11.3404 20.4495 11.7372 20.5716 12.4688 20.605C13.2597 20.6411 13.4963 20.6486 15.4995 20.6486C17.5027 20.6486 17.7393 20.6411 18.5302 20.605C19.2618 20.5716 19.6586 20.4495 19.9231 20.3466C20.2729 20.2102 20.5231 20.0486 20.7856 19.7861C21.0345 19.5441 21.2261 19.2489 21.3461 18.9236C21.4491 18.6591 21.5711 18.2623 21.6045 17.5307C21.6406 16.7398 21.6481 16.5025 21.6481 14.5C21.6481 12.4975 21.6406 12.2602 21.6045 11.4693C21.5711 10.7377 21.4491 10.3409 21.3461 10.0764C21.2097 9.72659 21.0481 9.47636 20.7856 9.21386C20.5436 8.96505 20.2489 8.77355 19.9231 8.65341C19.6586 8.55045 19.2618 8.42841 18.5302 8.395V8.395ZM14.5416 16.812C15.0766 17.0347 15.6723 17.0648 16.227 16.8971C16.7817 16.7294 17.2609 16.3743 17.5829 15.8924C17.9048 15.4106 18.0495 14.832 17.9923 14.2553C17.935 13.6786 17.6793 13.1398 17.2688 12.7307C17.0072 12.4692 16.6908 12.269 16.3425 12.1444C15.9941 12.0199 15.6225 11.9741 15.2544 12.0104C14.8863 12.0467 14.5308 12.1642 14.2135 12.3544C13.8962 12.5446 13.625 12.8028 13.4195 13.1104C13.214 13.4179 13.0792 13.7672 13.0249 14.1332C12.9705 14.4991 12.998 14.8725 13.1053 15.2265C13.2126 15.5805 13.3971 15.9063 13.6455 16.1805C13.8938 16.4547 14.1998 16.6704 14.5416 16.812ZM12.7736 11.7741C13.1316 11.4161 13.5565 11.1322 14.0243 10.9384C14.492 10.7447 14.9933 10.645 15.4995 10.645C16.0058 10.645 16.5071 10.7447 16.9748 10.9384C17.4425 11.1322 17.8674 11.4161 18.2254 11.7741C18.5834 12.1321 18.8674 12.557 19.0611 13.0247C19.2548 13.4925 19.3545 13.9938 19.3545 14.5C19.3545 15.0062 19.2548 15.5075 19.0611 15.9753C18.8674 16.443 18.5834 16.8679 18.2254 17.2259C17.5025 17.9489 16.5219 18.355 15.4995 18.355C14.4771 18.355 13.4966 17.9489 12.7736 17.2259C12.0506 16.503 11.6445 15.5224 11.6445 14.5C11.6445 13.4776 12.0506 12.497 12.7736 11.7741V11.7741ZM20.2095 11.2191C20.2982 11.1354 20.3692 11.0348 20.4184 10.9232C20.4675 10.8115 20.4937 10.6912 20.4955 10.5693C20.4973 10.4473 20.4745 10.3263 20.4287 10.2133C20.3829 10.1003 20.3148 9.99762 20.2286 9.91139C20.1423 9.82516 20.0397 9.75711 19.9267 9.71126C19.8137 9.66542 19.6926 9.64271 19.5707 9.64449C19.4488 9.64627 19.3284 9.67249 19.2168 9.72161C19.1052 9.77073 19.0046 9.84175 18.9209 9.93045C18.7581 10.103 18.669 10.3321 18.6725 10.5693C18.6759 10.8064 18.7717 11.0329 18.9394 11.2006C19.1071 11.3683 19.3336 11.464 19.5707 11.4675C19.8078 11.4709 20.037 11.3818 20.2095 11.2191V11.2191Z" fill="white"/>
</svg>
