<svg width="30" height="30" viewBox="0 0 30 30" fill="none" xmlns="http://www.w3.org/2000/svg">
<circle cx="15" cy="15" r="15" fill="#73EA3B"/>
<path d="M22.9998 10.4255C22.4481 10.6598 21.8479 10.8284 21.2295 10.8941C21.8715 10.5185 22.3522 9.92521 22.5815 9.22545C21.9791 9.57833 21.3192 9.82578 20.631 9.95681C20.3434 9.65402 19.9956 9.4128 19.6091 9.24819C19.2227 9.08357 18.806 8.99909 18.3849 9.00001C16.6814 9.00001 15.3114 10.3598 15.3114 12.0284C15.3114 12.2627 15.3402 12.497 15.3871 12.7225C12.8363 12.5911 10.5613 11.3911 9.04891 9.55385C8.77333 10.0174 8.62891 10.5451 8.63069 11.0823C8.63069 12.1331 9.17329 13.0598 10.0007 13.6047C9.5131 13.5858 9.03691 13.4538 8.61086 13.2195V13.2568C8.61086 14.7284 9.66722 15.9479 11.0751 16.2284C10.8108 16.296 10.5388 16.3306 10.2657 16.3314C10.0656 16.3314 9.87633 16.3118 9.68525 16.2852C10.0746 17.4852 11.2085 18.3568 12.5587 18.3852C11.5023 19.2 10.1792 19.6793 8.74246 19.6793C8.48467 19.6793 8.24672 19.6704 7.99976 19.642C9.36257 20.503 10.9796 21 12.7209 21C18.3741 21 21.4675 16.3882 21.4675 12.3852C21.4675 12.2539 21.4675 12.1225 21.4585 11.9911C22.057 11.5598 22.5815 11.0254 22.9998 10.4255Z" fill="white"/>
</svg>
